<mxfile host="app.diagrams.net" modified="2020-10-12T08:45:47.400Z" agent="5.0 (Windows NT 6.1; Win64; x64) AppleWebKit/537.36 (KHTML, like Gecko) Chrome/86.0.4240.75 Safari/537.36" etag="X0-JijoTT-WabKBZlFIP" version="13.7.9" type="github">
  <diagram id="UpgA-3KM350cW8X8NZfo" name="第 1 页">
    <mxGraphModel dx="1102" dy="525" grid="1" gridSize="10" guides="1" tooltips="1" connect="1" arrows="1" fold="1" page="1" pageScale="1" pageWidth="827" pageHeight="1169" math="0" shadow="0">
      <root>
        <mxCell id="0" />
        <mxCell id="1" parent="0" />
        <mxCell id="S1n8shiY79wI3u3zZmc8-9" style="edgeStyle=orthogonalEdgeStyle;rounded=0;orthogonalLoop=1;jettySize=auto;html=1;fontSize=16;" edge="1" parent="1" source="S1n8shiY79wI3u3zZmc8-2" target="S1n8shiY79wI3u3zZmc8-3">
          <mxGeometry relative="1" as="geometry" />
        </mxCell>
        <mxCell id="S1n8shiY79wI3u3zZmc8-2" value="访问寄存器" style="rounded=1;whiteSpace=wrap;html=1;strokeWidth=2;fillWeight=4;hachureGap=8;hachureAngle=45;fillColor=#dae8fc;sketch=0;strokeColor=#6c8ebf;fontSize=16;" vertex="1" parent="1">
          <mxGeometry x="290" y="210" width="146" height="70" as="geometry" />
        </mxCell>
        <mxCell id="S1n8shiY79wI3u3zZmc8-25" value="NO" style="edgeStyle=orthogonalEdgeStyle;rounded=0;orthogonalLoop=1;jettySize=auto;html=1;fontSize=16;" edge="1" parent="1" source="S1n8shiY79wI3u3zZmc8-3" target="S1n8shiY79wI3u3zZmc8-24">
          <mxGeometry relative="1" as="geometry" />
        </mxCell>
        <mxCell id="S1n8shiY79wI3u3zZmc8-3" value="寄存器是否&lt;br style=&quot;font-size: 16px&quot;&gt;已缓存此数据？" style="strokeWidth=2;html=1;shape=mxgraph.flowchart.decision;whiteSpace=wrap;sketch=0;fontSize=16;fillColor=#ffff88;strokeColor=#36393d;" vertex="1" parent="1">
          <mxGeometry x="288" y="310" width="150" height="130" as="geometry" />
        </mxCell>
        <mxCell id="S1n8shiY79wI3u3zZmc8-17" value="&#xa;&#xa;&lt;span style=&quot;color: rgb(0, 0, 0); font-family: helvetica; font-size: 16px; font-style: normal; font-weight: 400; letter-spacing: normal; text-align: center; text-indent: 0px; text-transform: none; word-spacing: 0px; background-color: rgb(255, 255, 255); display: inline; float: none;&quot;&gt;YES&lt;/span&gt;&lt;br style=&quot;color: rgb(0, 0, 0); font-family: helvetica; font-size: 16px; font-style: normal; font-weight: 400; letter-spacing: normal; text-align: center; text-indent: 0px; text-transform: none; word-spacing: 0px;&quot;&gt;&lt;span style=&quot;color: rgb(0, 0, 0); font-family: helvetica; font-size: 16px; font-style: normal; font-weight: 400; letter-spacing: normal; text-align: center; text-indent: 0px; text-transform: none; word-spacing: 0px; background-color: rgb(255, 255, 255); display: inline; float: none;&quot;&gt;直接返回数据&lt;/span&gt;&#xa;&#xa;" style="edgeStyle=orthogonalEdgeStyle;rounded=0;orthogonalLoop=1;jettySize=auto;html=1;entryX=1;entryY=0.5;entryDx=0;entryDy=0;fontSize=16;exitX=1;exitY=0.5;exitDx=0;exitDy=0;exitPerimeter=0;" edge="1" parent="1" source="S1n8shiY79wI3u3zZmc8-4" target="S1n8shiY79wI3u3zZmc8-21">
          <mxGeometry relative="1" as="geometry">
            <Array as="points">
              <mxPoint x="530" y="650" />
              <mxPoint x="530" y="125" />
            </Array>
          </mxGeometry>
        </mxCell>
        <mxCell id="S1n8shiY79wI3u3zZmc8-28" value="NO" style="edgeStyle=orthogonalEdgeStyle;rounded=0;orthogonalLoop=1;jettySize=auto;html=1;entryX=0.5;entryY=0;entryDx=0;entryDy=0;fontSize=16;" edge="1" parent="1" source="S1n8shiY79wI3u3zZmc8-4" target="S1n8shiY79wI3u3zZmc8-27">
          <mxGeometry relative="1" as="geometry" />
        </mxCell>
        <mxCell id="S1n8shiY79wI3u3zZmc8-4" value="L1 Cache 是否&lt;br style=&quot;font-size: 16px&quot;&gt;已缓存此数据？" style="strokeWidth=2;html=1;shape=mxgraph.flowchart.decision;whiteSpace=wrap;sketch=0;fontSize=16;fillColor=#ffff88;strokeColor=#36393d;" vertex="1" parent="1">
          <mxGeometry x="288" y="585" width="150" height="130" as="geometry" />
        </mxCell>
        <mxCell id="S1n8shiY79wI3u3zZmc8-32" value="NO" style="edgeStyle=orthogonalEdgeStyle;rounded=0;orthogonalLoop=1;jettySize=auto;html=1;fontSize=16;" edge="1" parent="1" source="S1n8shiY79wI3u3zZmc8-5" target="S1n8shiY79wI3u3zZmc8-30">
          <mxGeometry relative="1" as="geometry" />
        </mxCell>
        <mxCell id="S1n8shiY79wI3u3zZmc8-36" value="YES&lt;br&gt;直接返回数据" style="edgeStyle=orthogonalEdgeStyle;rounded=0;orthogonalLoop=1;jettySize=auto;html=1;entryX=1;entryY=0.5;entryDx=0;entryDy=0;fontSize=16;" edge="1" parent="1" source="S1n8shiY79wI3u3zZmc8-5" target="S1n8shiY79wI3u3zZmc8-21">
          <mxGeometry relative="1" as="geometry">
            <Array as="points">
              <mxPoint x="600" y="925" />
              <mxPoint x="600" y="125" />
            </Array>
          </mxGeometry>
        </mxCell>
        <mxCell id="S1n8shiY79wI3u3zZmc8-5" value="L2 Cache 是否&lt;br style=&quot;font-size: 16px&quot;&gt;已缓存此数据？" style="strokeWidth=2;html=1;shape=mxgraph.flowchart.decision;whiteSpace=wrap;sketch=0;fontSize=16;fillColor=#ffff88;strokeColor=#36393d;" vertex="1" parent="1">
          <mxGeometry x="288" y="860" width="150" height="130" as="geometry" />
        </mxCell>
        <mxCell id="S1n8shiY79wI3u3zZmc8-13" value="NO" style="edgeStyle=orthogonalEdgeStyle;rounded=0;orthogonalLoop=1;jettySize=auto;html=1;entryX=0.5;entryY=0;entryDx=0;entryDy=0;fontSize=16;" edge="1" parent="1" source="S1n8shiY79wI3u3zZmc8-6" target="S1n8shiY79wI3u3zZmc8-8">
          <mxGeometry relative="1" as="geometry" />
        </mxCell>
        <mxCell id="S1n8shiY79wI3u3zZmc8-37" value="&#xa;&#xa;&lt;span style=&quot;color: rgb(0, 0, 0); font-family: helvetica; font-size: 16px; font-style: normal; font-weight: 400; letter-spacing: normal; text-align: center; text-indent: 0px; text-transform: none; word-spacing: 0px; background-color: rgb(255, 255, 255); display: inline; float: none;&quot;&gt;YES&lt;/span&gt;&lt;br style=&quot;color: rgb(0, 0, 0); font-family: helvetica; font-size: 16px; font-style: normal; font-weight: 400; letter-spacing: normal; text-align: center; text-indent: 0px; text-transform: none; word-spacing: 0px;&quot;&gt;&lt;span style=&quot;color: rgb(0, 0, 0); font-family: helvetica; font-size: 16px; font-style: normal; font-weight: 400; letter-spacing: normal; text-align: center; text-indent: 0px; text-transform: none; word-spacing: 0px; background-color: rgb(255, 255, 255); display: inline; float: none;&quot;&gt;直接返回数据&lt;/span&gt;&#xa;&#xa;" style="edgeStyle=orthogonalEdgeStyle;rounded=0;orthogonalLoop=1;jettySize=auto;html=1;entryX=1;entryY=0.5;entryDx=0;entryDy=0;fontSize=16;" edge="1" parent="1" source="S1n8shiY79wI3u3zZmc8-6" target="S1n8shiY79wI3u3zZmc8-21">
          <mxGeometry relative="1" as="geometry">
            <Array as="points">
              <mxPoint x="660" y="1205" />
              <mxPoint x="660" y="125" />
            </Array>
          </mxGeometry>
        </mxCell>
        <mxCell id="S1n8shiY79wI3u3zZmc8-6" value="L3 Cache 是否&lt;br style=&quot;font-size: 16px&quot;&gt;已缓存此数据？" style="strokeWidth=2;html=1;shape=mxgraph.flowchart.decision;whiteSpace=wrap;sketch=0;fontSize=16;fillColor=#ffff88;strokeColor=#36393d;" vertex="1" parent="1">
          <mxGeometry x="288" y="1140" width="150" height="130" as="geometry" />
        </mxCell>
        <mxCell id="S1n8shiY79wI3u3zZmc8-8" value="访问内存" style="rounded=1;whiteSpace=wrap;html=1;strokeWidth=2;fillWeight=4;hachureGap=8;hachureAngle=45;fillColor=#dae8fc;sketch=0;strokeColor=#6c8ebf;fontSize=16;" vertex="1" parent="1">
          <mxGeometry x="288" y="1330" width="146" height="70" as="geometry" />
        </mxCell>
        <mxCell id="S1n8shiY79wI3u3zZmc8-23" style="edgeStyle=orthogonalEdgeStyle;rounded=0;orthogonalLoop=1;jettySize=auto;html=1;fontSize=16;" edge="1" parent="1" source="S1n8shiY79wI3u3zZmc8-21" target="S1n8shiY79wI3u3zZmc8-2">
          <mxGeometry relative="1" as="geometry" />
        </mxCell>
        <mxCell id="S1n8shiY79wI3u3zZmc8-21" value="CPU 需要访问&lt;br style=&quot;font-size: 16px;&quot;&gt;内存的数据" style="rounded=1;whiteSpace=wrap;html=1;strokeWidth=2;fillWeight=4;hachureGap=8;hachureAngle=45;fillColor=#ffe6cc;sketch=0;strokeColor=#d79b00;fontSize=16;" vertex="1" parent="1">
          <mxGeometry x="290" y="90" width="146" height="70" as="geometry" />
        </mxCell>
        <mxCell id="S1n8shiY79wI3u3zZmc8-26" style="edgeStyle=orthogonalEdgeStyle;rounded=0;orthogonalLoop=1;jettySize=auto;html=1;entryX=0.5;entryY=0;entryDx=0;entryDy=0;entryPerimeter=0;fontSize=16;" edge="1" parent="1" source="S1n8shiY79wI3u3zZmc8-24" target="S1n8shiY79wI3u3zZmc8-4">
          <mxGeometry relative="1" as="geometry" />
        </mxCell>
        <mxCell id="S1n8shiY79wI3u3zZmc8-24" value="访问 L1 Cache" style="rounded=1;whiteSpace=wrap;html=1;strokeWidth=2;fillWeight=4;hachureGap=8;hachureAngle=45;fillColor=#dae8fc;sketch=0;strokeColor=#6c8ebf;fontSize=16;" vertex="1" parent="1">
          <mxGeometry x="290" y="490" width="146" height="70" as="geometry" />
        </mxCell>
        <mxCell id="S1n8shiY79wI3u3zZmc8-29" style="edgeStyle=orthogonalEdgeStyle;rounded=0;orthogonalLoop=1;jettySize=auto;html=1;entryX=0.5;entryY=0;entryDx=0;entryDy=0;entryPerimeter=0;fontSize=16;" edge="1" parent="1" source="S1n8shiY79wI3u3zZmc8-27" target="S1n8shiY79wI3u3zZmc8-5">
          <mxGeometry relative="1" as="geometry" />
        </mxCell>
        <mxCell id="S1n8shiY79wI3u3zZmc8-27" value="访问 L2 Cache" style="rounded=1;whiteSpace=wrap;html=1;strokeWidth=2;fillWeight=4;hachureGap=8;hachureAngle=45;fillColor=#dae8fc;sketch=0;strokeColor=#6c8ebf;fontSize=16;" vertex="1" parent="1">
          <mxGeometry x="290" y="760" width="146" height="70" as="geometry" />
        </mxCell>
        <mxCell id="S1n8shiY79wI3u3zZmc8-33" style="edgeStyle=orthogonalEdgeStyle;rounded=0;orthogonalLoop=1;jettySize=auto;html=1;fontSize=16;" edge="1" parent="1" source="S1n8shiY79wI3u3zZmc8-30" target="S1n8shiY79wI3u3zZmc8-6">
          <mxGeometry relative="1" as="geometry" />
        </mxCell>
        <mxCell id="S1n8shiY79wI3u3zZmc8-30" value="访问 L3 Cache" style="rounded=1;whiteSpace=wrap;html=1;strokeWidth=2;fillWeight=4;hachureGap=8;hachureAngle=45;fillColor=#dae8fc;sketch=0;strokeColor=#6c8ebf;fontSize=16;" vertex="1" parent="1">
          <mxGeometry x="290" y="1040" width="146" height="70" as="geometry" />
        </mxCell>
      </root>
    </mxGraphModel>
  </diagram>
</mxfile>
